<svg id="visual" viewBox="0 0 960 300" width="960" height="300" xmlns="http://www.w3.org/2000/svg" xmlns:xlink="http://www.w3.org/1999/xlink" version="1.1"><path d="M0 130L14.5 118C29 106 58 82 87.2 69C116.3 56 145.7 54 174.8 63C204 72 233 92 262 94C291 96 320 80 349 71C378 62 407 60 436.2 60.5C465.3 61 494.7 64 523.8 62.5C553 61 582 55 611 63.5C640 72 669 95 698 100C727 105 756 92 785.2 91C814.3 90 843.7 101 872.8 111C902 121 931 130 945.5 134.5L960 139L960 0L945.5 0C931 0 902 0 872.8 0C843.7 0 814.3 0 785.2 0C756 0 727 0 698 0C669 0 640 0 611 0C582 0 553 0 523.8 0C494.7 0 465.3 0 436.2 0C407 0 378 0 349 0C320 0 291 0 262 0C233 0 204 0 174.8 0C145.7 0 116.3 0 87.2 0C58 0 29 0 14.5 0L0 0Z" fill="#001122"></path><path d="M0 160L14.5 145.5C29 131 58 102 87.2 88.5C116.3 75 145.7 77 174.8 91C204 105 233 131 262 135C291 139 320 121 349 109.5C378 98 407 93 436.2 95C465.3 97 494.7 106 523.8 104.5C553 103 582 91 611 96.5C640 102 669 125 698 129.5C727 134 756 120 785.2 121C814.3 122 843.7 138 872.8 150C902 162 931 170 945.5 174L960 178L960 137L945.5 132.5C931 128 902 119 872.8 109C843.7 99 814.3 88 785.2 89C756 90 727 103 698 98C669 93 640 70 611 61.5C582 53 553 59 523.8 60.5C494.7 62 465.3 59 436.2 58.5C407 58 378 60 349 69C320 78 291 94 262 92C233 90 204 70 174.8 61C145.7 52 116.3 54 87.2 67C58 80 29 104 14.5 116L0 128Z" fill="#031629"></path><path d="M0 208L14.5 210.5C29 213 58 218 87.2 213.5C116.3 209 145.7 195 174.8 193.5C204 192 233 203 262 200C291 197 320 180 349 170.5C378 161 407 159 436.2 168C465.3 177 494.7 197 523.8 199C553 201 582 185 611 179C640 173 669 177 698 180C727 183 756 185 785.2 187.5C814.3 190 843.7 193 872.8 198C902 203 931 210 945.5 213.5L960 217L960 176L945.5 172C931 168 902 160 872.8 148C843.7 136 814.3 120 785.2 119C756 118 727 132 698 127.5C669 123 640 100 611 94.5C582 89 553 101 523.8 102.5C494.7 104 465.3 95 436.2 93C407 91 378 96 349 107.5C320 119 291 137 262 133C233 129 204 103 174.8 89C145.7 75 116.3 73 87.2 86.5C58 100 29 129 14.5 143.5L0 158Z" fill="#041a30"></path><path d="M0 232L14.5 236C29 240 58 248 87.2 244.5C116.3 241 145.7 226 174.8 221C204 216 233 221 262 219.5C291 218 320 210 349 204C378 198 407 194 436.2 200C465.3 206 494.7 222 523.8 225C553 228 582 218 611 213C640 208 669 208 698 207.5C727 207 756 206 785.2 209C814.3 212 843.7 219 872.8 223C902 227 931 228 945.5 228.5L960 229L960 215L945.5 211.5C931 208 902 201 872.8 196C843.7 191 814.3 188 785.2 185.5C756 183 727 181 698 178C669 175 640 171 611 177C582 183 553 199 523.8 197C494.7 195 465.3 175 436.2 166C407 157 378 159 349 168.5C320 178 291 195 262 198C233 201 204 190 174.8 191.5C145.7 193 116.3 207 87.2 211.5C58 216 29 211 14.5 208.5L0 206Z" fill="#061e37"></path><path d="M0 271L14.5 272.5C29 274 58 277 87.2 276.5C116.3 276 145.7 272 174.8 269.5C204 267 233 266 262 263C291 260 320 255 349 254C378 253 407 256 436.2 262C465.3 268 494.7 277 523.8 275C553 273 582 260 611 255C640 250 669 253 698 256.5C727 260 756 264 785.2 263.5C814.3 263 843.7 258 872.8 259.5C902 261 931 269 945.5 273L960 277L960 227L945.5 226.5C931 226 902 225 872.8 221C843.7 217 814.3 210 785.2 207C756 204 727 205 698 205.5C669 206 640 206 611 211C582 216 553 226 523.8 223C494.7 220 465.3 204 436.2 198C407 192 378 196 349 202C320 208 291 216 262 217.5C233 219 204 214 174.8 219C145.7 224 116.3 239 87.2 242.5C58 246 29 238 14.5 234L0 230Z" fill="#07233e"></path><path d="M0 301L14.5 301C29 301 58 301 87.2 301C116.3 301 145.7 301 174.8 301C204 301 233 301 262 301C291 301 320 301 349 301C378 301 407 301 436.2 301C465.3 301 494.7 301 523.8 301C553 301 582 301 611 301C640 301 669 301 698 301C727 301 756 301 785.2 301C814.3 301 843.7 301 872.8 301C902 301 931 301 945.5 301L960 301L960 275L945.5 271C931 267 902 259 872.8 257.5C843.7 256 814.3 261 785.2 261.5C756 262 727 258 698 254.5C669 251 640 248 611 253C582 258 553 271 523.8 273C494.7 275 465.3 266 436.2 260C407 254 378 251 349 252C320 253 291 258 262 261C233 264 204 265 174.8 267.5C145.7 270 116.3 274 87.2 274.5C58 275 29 272 14.5 270.5L0 269Z" fill="#092745"></path></svg>