<svg id="visual" viewBox="0 0 960 300" width="960" height="300" xmlns="http://www.w3.org/2000/svg" xmlns:xlink="http://www.w3.org/1999/xlink" version="1.1"><path d="M0 82L14.5 81.5C29 81 58 80 87.2 79.5C116.3 79 145.7 79 174.8 80.5C204 82 233 85 262 83C291 81 320 74 349 82.5C378 91 407 115 436.2 110C465.3 105 494.7 71 523.8 56.5C553 42 582 47 611 56C640 65 669 78 698 81.5C727 85 756 79 785.2 78C814.3 77 843.7 81 872.8 75.5C902 70 931 55 945.5 47.5L960 40L960 0L945.5 0C931 0 902 0 872.8 0C843.7 0 814.3 0 785.2 0C756 0 727 0 698 0C669 0 640 0 611 0C582 0 553 0 523.8 0C494.7 0 465.3 0 436.2 0C407 0 378 0 349 0C320 0 291 0 262 0C233 0 204 0 174.8 0C145.7 0 116.3 0 87.2 0C58 0 29 0 14.5 0L0 0Z" fill="#092745"></path><path d="M0 103L14.5 105C29 107 58 111 87.2 113.5C116.3 116 145.7 117 174.8 118.5C204 120 233 122 262 118.5C291 115 320 106 349 115C378 124 407 151 436.2 149C465.3 147 494.7 116 523.8 97C553 78 582 71 611 75C640 79 669 94 698 102.5C727 111 756 113 785.2 115.5C814.3 118 843.7 121 872.8 117C902 113 931 102 945.5 96.5L960 91L960 38L945.5 45.5C931 53 902 68 872.8 73.5C843.7 79 814.3 75 785.2 76C756 77 727 83 698 79.5C669 76 640 63 611 54C582 45 553 40 523.8 54.5C494.7 69 465.3 103 436.2 108C407 113 378 89 349 80.5C320 72 291 79 262 81C233 83 204 80 174.8 78.5C145.7 77 116.3 77 87.2 77.5C58 78 29 79 14.5 79.5L0 80Z" fill="#07233e"></path><path d="M0 151L14.5 155.5C29 160 58 169 87.2 170C116.3 171 145.7 164 174.8 168C204 172 233 187 262 188.5C291 190 320 178 349 177C378 176 407 186 436.2 178C465.3 170 494.7 144 523.8 134C553 124 582 130 611 132C640 134 669 132 698 140.5C727 149 756 168 785.2 178.5C814.3 189 843.7 191 872.8 181C902 171 931 149 945.5 138L960 127L960 89L945.5 94.5C931 100 902 111 872.8 115C843.7 119 814.3 116 785.2 113.5C756 111 727 109 698 100.5C669 92 640 77 611 73C582 69 553 76 523.8 95C494.7 114 465.3 145 436.2 147C407 149 378 122 349 113C320 104 291 113 262 116.5C233 120 204 118 174.8 116.5C145.7 115 116.3 114 87.2 111.5C58 109 29 105 14.5 103L0 101Z" fill="#061e37"></path><path d="M0 220L14.5 221.5C29 223 58 226 87.2 232C116.3 238 145.7 247 174.8 249C204 251 233 246 262 239C291 232 320 223 349 221.5C378 220 407 226 436.2 228.5C465.3 231 494.7 230 523.8 226C553 222 582 215 611 212C640 209 669 210 698 214.5C727 219 756 227 785.2 229C814.3 231 843.7 227 872.8 229C902 231 931 239 945.5 243L960 247L960 125L945.5 136C931 147 902 169 872.8 179C843.7 189 814.3 187 785.2 176.5C756 166 727 147 698 138.5C669 130 640 132 611 130C582 128 553 122 523.8 132C494.7 142 465.3 168 436.2 176C407 184 378 174 349 175C320 176 291 188 262 186.5C233 185 204 170 174.8 166C145.7 162 116.3 169 87.2 168C58 167 29 158 14.5 153.5L0 149Z" fill="#041a30"></path><path d="M0 259L14.5 261.5C29 264 58 269 87.2 272.5C116.3 276 145.7 278 174.8 278.5C204 279 233 278 262 277C291 276 320 275 349 271.5C378 268 407 262 436.2 261.5C465.3 261 494.7 266 523.8 269C553 272 582 273 611 272.5C640 272 669 270 698 272C727 274 756 280 785.2 279C814.3 278 843.7 270 872.8 267.5C902 265 931 268 945.5 269.5L960 271L960 245L945.5 241C931 237 902 229 872.8 227C843.7 225 814.3 229 785.2 227C756 225 727 217 698 212.5C669 208 640 207 611 210C582 213 553 220 523.8 224C494.7 228 465.3 229 436.2 226.5C407 224 378 218 349 219.5C320 221 291 230 262 237C233 244 204 249 174.8 247C145.7 245 116.3 236 87.2 230C58 224 29 221 14.5 219.5L0 218Z" fill="#031629"></path><path d="M0 301L14.5 301C29 301 58 301 87.2 301C116.3 301 145.7 301 174.8 301C204 301 233 301 262 301C291 301 320 301 349 301C378 301 407 301 436.2 301C465.3 301 494.7 301 523.8 301C553 301 582 301 611 301C640 301 669 301 698 301C727 301 756 301 785.2 301C814.3 301 843.7 301 872.8 301C902 301 931 301 945.5 301L960 301L960 269L945.5 267.5C931 266 902 263 872.8 265.5C843.7 268 814.3 276 785.2 277C756 278 727 272 698 270C669 268 640 270 611 270.5C582 271 553 270 523.8 267C494.7 264 465.3 259 436.2 259.5C407 260 378 266 349 269.5C320 273 291 274 262 275C233 276 204 277 174.8 276.5C145.7 276 116.3 274 87.2 270.5C58 267 29 262 14.5 259.5L0 257Z" fill="#001122"></path></svg>